# xmcd
#
# Track frame offsets:
#	150
#	30072
#	43692
#	72366
#	102345
#	138305
#
# Disc length: 2022 seconds
#
# Revision: 1
# Processed by: cddbd v1.5.2PL0 Copyright (c) Steve Scherf et al.
# Submitted via: audiograbber 1.83.01
#
DISCID=4707e406
DTITLE=Grateful Dead - 71-11-20 Pauley Pavilion, UCLA, Los Angeles CA
DYEAR=1900
DGENRE=
TTITLE0=Sugar Magnolia
TTITLE1=Sunshine Daydream
TTITLE2=You Win Again
TTITLE3=Not Fade Away
TTITLE4=Going Down The Road Feeling Bad
TTITLE5=Not Fade Away
EXTD=
EXTT0=
EXTT1=
EXTT2=
EXTT3=
EXTT4=
EXTT5=
PLAYORDER=
